# xmcd
# 
# Track frame offsets:
#     183
#     32193
#     45848
#     54065
#     67283
#     77385
#     89363
#     104023
#     122140
#     138795
#     155705
# 
# Disc length: 2339
# 
# Revision: 1
# Processed by: cddbd v1.5.2PL0 Copyright (c) Steve Scherf et al.
# Submitted via: fre:ac v1.0.27
# 
DISCID=8b09210b
DTITLE=Modern Jazz Quartet - Django
DYEAR=1983
DGENRE=Jazz
TTITLE0=Django
TTITLE1=One Bass Hit
TTITLE2=La Ronde Suite - Piano
TTITLE3=La Ronde Suite - Bass
TTITLE4=La Ronde Suite - Vibes
TTITLE5=La Ronde Suite - Drums
TTITLE6=The Queen's Fancy
TTITLE7=Delaunay's Dilemma
TTITLE8=Autumn In New york
TTITLE9=But Not For Me
TTITLE10=Milano
EXTD=YEAR: 1983
EXTT0=
EXTT1=
EXTT2=
EXTT3=
EXTT4=
EXTT5=
EXTT6=
EXTT7=
EXTT8=
EXTT9=
EXTT10=
PLAYORDER=
